<mxfile host="app.diagrams.net" agent="Mozilla/5.0 (Windows NT 10.0; Win64; x64) AppleWebKit/537.36 (KHTML, like Gecko) Chrome/141.0.0.0 Safari/537.36" version="28.2.7">
  <diagram name="Página-1" id="r-0QPf6V2tmln9Oeitv-">
    <mxGraphModel dx="1426" dy="749" grid="1" gridSize="10" guides="1" tooltips="1" connect="1" arrows="1" fold="1" page="1" pageScale="1" pageWidth="827" pageHeight="1169" background="light-dark(#FFFFFF,#E2E2E2)" math="0" shadow="0">
      <root>
        <mxCell id="0" />
        <mxCell id="1" parent="0" />
        <mxCell id="zlSR9fV92R6n06XUKCxw-28" value="" style="group" vertex="1" connectable="0" parent="1">
          <mxGeometry x="139" y="235" width="550" height="700" as="geometry" />
        </mxCell>
        <mxCell id="zlSR9fV92R6n06XUKCxw-26" value="" style="rounded=0;whiteSpace=wrap;html=1;fontFamily=Helvetica;fontSize=11;fontColor=default;labelBackgroundColor=default;" vertex="1" parent="zlSR9fV92R6n06XUKCxw-28">
          <mxGeometry width="550" height="700" as="geometry" />
        </mxCell>
        <mxCell id="zlSR9fV92R6n06XUKCxw-27" value="" style="group" vertex="1" connectable="0" parent="zlSR9fV92R6n06XUKCxw-28">
          <mxGeometry x="20" y="20" width="440" height="660" as="geometry" />
        </mxCell>
        <mxCell id="zlSR9fV92R6n06XUKCxw-1" value="Estudante" style="shape=umlActor;verticalLabelPosition=bottom;verticalAlign=top;html=1;outlineConnect=0;strokeColor=light-dark(#000000,#000000);strokeWidth=5;fillColor=#FFD966;" vertex="1" parent="zlSR9fV92R6n06XUKCxw-27">
          <mxGeometry y="255" width="70" height="150" as="geometry" />
        </mxCell>
        <mxCell id="zlSR9fV92R6n06XUKCxw-2" value="" style="rounded=0;whiteSpace=wrap;html=1;" vertex="1" parent="zlSR9fV92R6n06XUKCxw-27">
          <mxGeometry x="170" width="270" height="660" as="geometry" />
        </mxCell>
        <mxCell id="zlSR9fV92R6n06XUKCxw-3" value="Gestor Acadêmico" style="text;html=1;whiteSpace=wrap;strokeColor=none;fillColor=none;align=center;verticalAlign=middle;rounded=0;fontSize=19;fontStyle=1" vertex="1" parent="zlSR9fV92R6n06XUKCxw-27">
          <mxGeometry x="215" y="10" width="180" height="30" as="geometry" />
        </mxCell>
        <mxCell id="zlSR9fV92R6n06XUKCxw-4" value="Cadastro Usuário" style="ellipse;whiteSpace=wrap;html=1;fontSize=11;fillColor=#FFD966;" vertex="1" parent="zlSR9fV92R6n06XUKCxw-27">
          <mxGeometry x="255" y="50" width="95" height="50" as="geometry" />
        </mxCell>
        <mxCell id="zlSR9fV92R6n06XUKCxw-5" value="Registrar Matéria" style="ellipse;whiteSpace=wrap;html=1;fontSize=11;fillColor=#FFD966;" vertex="1" parent="zlSR9fV92R6n06XUKCxw-27">
          <mxGeometry x="256.87" y="170" width="95" height="50" as="geometry" />
        </mxCell>
        <mxCell id="zlSR9fV92R6n06XUKCxw-20" style="edgeStyle=none;shape=connector;rounded=0;orthogonalLoop=1;jettySize=auto;html=1;exitX=0;exitY=0.5;exitDx=0;exitDy=0;strokeColor=default;align=center;verticalAlign=middle;fontFamily=Helvetica;fontSize=11;fontColor=default;labelBackgroundColor=default;endArrow=none;endFill=0;entryX=1;entryY=0.3333333333333333;entryDx=0;entryDy=0;entryPerimeter=0;" edge="1" parent="zlSR9fV92R6n06XUKCxw-27" source="zlSR9fV92R6n06XUKCxw-6" target="zlSR9fV92R6n06XUKCxw-1">
          <mxGeometry relative="1" as="geometry">
            <mxPoint x="60" y="260" as="targetPoint" />
          </mxGeometry>
        </mxCell>
        <mxCell id="zlSR9fV92R6n06XUKCxw-6" value="Adicionar Faltas" style="ellipse;whiteSpace=wrap;html=1;fontSize=11;fillColor=#FFD966;" vertex="1" parent="zlSR9fV92R6n06XUKCxw-27">
          <mxGeometry x="256.87" y="230" width="95" height="50" as="geometry" />
        </mxCell>
        <mxCell id="zlSR9fV92R6n06XUKCxw-7" value="Adicionar Notas" style="ellipse;whiteSpace=wrap;html=1;fontSize=11;fillColor=#FFD966;" vertex="1" parent="zlSR9fV92R6n06XUKCxw-27">
          <mxGeometry x="253.12" y="290" width="95" height="50" as="geometry" />
        </mxCell>
        <mxCell id="zlSR9fV92R6n06XUKCxw-22" style="edgeStyle=none;shape=connector;rounded=0;orthogonalLoop=1;jettySize=auto;html=1;exitX=0;exitY=0.5;exitDx=0;exitDy=0;strokeColor=default;align=center;verticalAlign=middle;fontFamily=Helvetica;fontSize=11;fontColor=default;labelBackgroundColor=default;endArrow=none;endFill=0;entryX=1;entryY=0.3333333333333333;entryDx=0;entryDy=0;entryPerimeter=0;" edge="1" parent="zlSR9fV92R6n06XUKCxw-27" source="zlSR9fV92R6n06XUKCxw-8" target="zlSR9fV92R6n06XUKCxw-1">
          <mxGeometry relative="1" as="geometry">
            <mxPoint x="60" y="264" as="targetPoint" />
          </mxGeometry>
        </mxCell>
        <mxCell id="zlSR9fV92R6n06XUKCxw-8" value="Ver Média Atual" style="ellipse;whiteSpace=wrap;html=1;fontSize=11;fillColor=#FFD966;" vertex="1" parent="zlSR9fV92R6n06XUKCxw-27">
          <mxGeometry x="255.62" y="350" width="95" height="50" as="geometry" />
        </mxCell>
        <mxCell id="zlSR9fV92R6n06XUKCxw-23" style="edgeStyle=none;shape=connector;rounded=0;orthogonalLoop=1;jettySize=auto;html=1;exitX=0;exitY=0.5;exitDx=0;exitDy=0;strokeColor=default;align=center;verticalAlign=middle;fontFamily=Helvetica;fontSize=11;fontColor=default;labelBackgroundColor=default;endArrow=none;endFill=0;entryX=1;entryY=0.3333333333333333;entryDx=0;entryDy=0;entryPerimeter=0;" edge="1" parent="zlSR9fV92R6n06XUKCxw-27" source="zlSR9fV92R6n06XUKCxw-9" target="zlSR9fV92R6n06XUKCxw-1">
          <mxGeometry relative="1" as="geometry">
            <mxPoint x="60" y="264" as="targetPoint" />
          </mxGeometry>
        </mxCell>
        <mxCell id="zlSR9fV92R6n06XUKCxw-9" value="Ver Faltas Restantes" style="ellipse;whiteSpace=wrap;html=1;fontSize=11;fillColor=#FFD966;" vertex="1" parent="zlSR9fV92R6n06XUKCxw-27">
          <mxGeometry x="255.62" y="410" width="95" height="50" as="geometry" />
        </mxCell>
        <mxCell id="zlSR9fV92R6n06XUKCxw-10" value="Listar Matérias Registradas" style="ellipse;whiteSpace=wrap;html=1;fontSize=11;fillColor=#FFD966;" vertex="1" parent="zlSR9fV92R6n06XUKCxw-27">
          <mxGeometry x="255.62" y="470" width="95" height="50" as="geometry" />
        </mxCell>
        <mxCell id="zlSR9fV92R6n06XUKCxw-24" style="edgeStyle=none;shape=connector;rounded=0;orthogonalLoop=1;jettySize=auto;html=1;exitX=0;exitY=0.5;exitDx=0;exitDy=0;strokeColor=default;align=center;verticalAlign=middle;fontFamily=Helvetica;fontSize=11;fontColor=default;labelBackgroundColor=default;endArrow=none;endFill=0;entryX=1;entryY=0.3333333333333333;entryDx=0;entryDy=0;entryPerimeter=0;" edge="1" parent="zlSR9fV92R6n06XUKCxw-27" source="zlSR9fV92R6n06XUKCxw-11" target="zlSR9fV92R6n06XUKCxw-1">
          <mxGeometry relative="1" as="geometry">
            <mxPoint x="60" y="263" as="targetPoint" />
          </mxGeometry>
        </mxCell>
        <mxCell id="zlSR9fV92R6n06XUKCxw-11" value="Ver nota Necessária para atingir média" style="ellipse;whiteSpace=wrap;html=1;fontSize=11;fillColor=#FFD966;" vertex="1" parent="zlSR9fV92R6n06XUKCxw-27">
          <mxGeometry x="256.87" y="530" width="95" height="50" as="geometry" />
        </mxCell>
        <mxCell id="zlSR9fV92R6n06XUKCxw-25" style="edgeStyle=none;shape=connector;rounded=0;orthogonalLoop=1;jettySize=auto;html=1;exitX=0;exitY=0.5;exitDx=0;exitDy=0;strokeColor=default;align=center;verticalAlign=middle;fontFamily=Helvetica;fontSize=11;fontColor=default;labelBackgroundColor=default;endArrow=none;endFill=0;entryX=1;entryY=0.3333333333333333;entryDx=0;entryDy=0;entryPerimeter=0;" edge="1" parent="zlSR9fV92R6n06XUKCxw-27" source="zlSR9fV92R6n06XUKCxw-12" target="zlSR9fV92R6n06XUKCxw-1">
          <mxGeometry relative="1" as="geometry">
            <mxPoint x="60" y="265" as="targetPoint" />
          </mxGeometry>
        </mxCell>
        <mxCell id="zlSR9fV92R6n06XUKCxw-12" value="Calcular IEA" style="ellipse;whiteSpace=wrap;html=1;fontSize=11;fillColor=#FFD966;" vertex="1" parent="zlSR9fV92R6n06XUKCxw-27">
          <mxGeometry x="256.87" y="590" width="95" height="50" as="geometry" />
        </mxCell>
        <mxCell id="zlSR9fV92R6n06XUKCxw-13" value="Cadastrar Semestre" style="ellipse;whiteSpace=wrap;html=1;fontSize=11;fillColor=#FFD966;" vertex="1" parent="zlSR9fV92R6n06XUKCxw-27">
          <mxGeometry x="257.5" y="110" width="95" height="50" as="geometry" />
        </mxCell>
        <mxCell id="zlSR9fV92R6n06XUKCxw-17" style="rounded=0;orthogonalLoop=1;jettySize=auto;html=1;exitX=0;exitY=0.5;exitDx=0;exitDy=0;entryX=1;entryY=0.3333333333333333;entryDx=0;entryDy=0;entryPerimeter=0;endArrow=none;endFill=0;" edge="1" parent="zlSR9fV92R6n06XUKCxw-27" source="zlSR9fV92R6n06XUKCxw-4" target="zlSR9fV92R6n06XUKCxw-1">
          <mxGeometry relative="1" as="geometry" />
        </mxCell>
        <mxCell id="zlSR9fV92R6n06XUKCxw-18" style="edgeStyle=none;shape=connector;rounded=0;orthogonalLoop=1;jettySize=auto;html=1;exitX=0;exitY=0.5;exitDx=0;exitDy=0;entryX=1;entryY=0.3333333333333333;entryDx=0;entryDy=0;entryPerimeter=0;strokeColor=default;align=center;verticalAlign=middle;fontFamily=Helvetica;fontSize=11;fontColor=default;labelBackgroundColor=default;endArrow=none;endFill=0;" edge="1" parent="zlSR9fV92R6n06XUKCxw-27" source="zlSR9fV92R6n06XUKCxw-13" target="zlSR9fV92R6n06XUKCxw-1">
          <mxGeometry relative="1" as="geometry" />
        </mxCell>
        <mxCell id="zlSR9fV92R6n06XUKCxw-19" style="edgeStyle=none;shape=connector;rounded=0;orthogonalLoop=1;jettySize=auto;html=1;exitX=0;exitY=0.5;exitDx=0;exitDy=0;entryX=1;entryY=0.3333333333333333;entryDx=0;entryDy=0;entryPerimeter=0;strokeColor=default;align=center;verticalAlign=middle;fontFamily=Helvetica;fontSize=11;fontColor=default;labelBackgroundColor=default;endArrow=none;endFill=0;" edge="1" parent="zlSR9fV92R6n06XUKCxw-27" source="zlSR9fV92R6n06XUKCxw-5" target="zlSR9fV92R6n06XUKCxw-1">
          <mxGeometry relative="1" as="geometry" />
        </mxCell>
        <mxCell id="zlSR9fV92R6n06XUKCxw-21" style="edgeStyle=none;shape=connector;rounded=0;orthogonalLoop=1;jettySize=auto;html=1;exitX=0;exitY=0.5;exitDx=0;exitDy=0;entryX=1;entryY=0.3333333333333333;entryDx=0;entryDy=0;entryPerimeter=0;strokeColor=default;align=center;verticalAlign=middle;fontFamily=Helvetica;fontSize=11;fontColor=default;labelBackgroundColor=default;endArrow=none;endFill=0;" edge="1" parent="zlSR9fV92R6n06XUKCxw-27" source="zlSR9fV92R6n06XUKCxw-7" target="zlSR9fV92R6n06XUKCxw-1">
          <mxGeometry relative="1" as="geometry" />
        </mxCell>
      </root>
    </mxGraphModel>
  </diagram>
</mxfile>
